<svg width="256" height="256" viewBox="0 0 256 256" fill="none" xmlns="http://www.w3.org/2000/svg">
<path d="M14.0515 69.7C13.8515 68.2 14.2515 66.8 14.9515 65.5C15.6515 64.2 16.8515 63.2 18.1515 62.6L73.5515 39C73.9515 38.8 74.3515 38.6 74.7515 38.3L124.151 4.2C125.251 3.4 126.651 3 128.051 3C129.451 3 130.851 3.4 131.951 4.2L181.351 38.3C181.751 38.6 182.151 38.8 182.551 39L238.051 62.7C239.451 63.3 240.551 64.3 241.251 65.6C241.951 66.9 242.351 68.4 242.151 69.8L235.951 127C235.851 127.5 235.851 128 235.951 128.5L242.151 185.7C242.351 187.2 241.951 188.6 241.251 189.9C240.551 191.2 239.351 192.2 238.051 192.8L182.651 216.4C182.251 216.6 181.851 216.8 181.451 217.1L132.051 251.2C130.951 252 129.551 252.4 128.151 252.4C126.751 252.4 125.351 252 124.251 251.2L74.8515 217.1C74.4515 216.8 74.0515 216.6 73.6515 216.4L18.2515 192.7C16.8515 192.1 15.7515 191.1 15.0515 189.8C14.3515 188.5 13.9515 187 14.1515 185.6L20.3515 128.4C20.4515 127.9 20.4515 127.4 20.3515 126.9L14.0515 69.7Z" fill="#DEBA44"/>
<path d="M132.151 4.39999L136.151 133.5L232.651 60.9L181.551 38.3L132.151 4.39999Z" fill="#D1A42D"/>
<path d="M232.352 195.3L135.952 130.2L136.252 248.2L181.252 217.4L232.352 195.3Z" fill="#D1A42D"/>
<path d="M14.8514 71.1L138.251 130.9L14.8514 181.3L20.2514 128.2L14.8514 71.1Z" fill="#D1A42D"/>
<g filter="url(#filter0_b_652_7199)">
<path d="M69.8539 161C69.1499 161 68.5419 160.776 68.0299 160.328C67.5819 159.88 67.3579 159.304 67.3579 158.6V151.784C67.3579 151.336 67.4859 150.664 67.7419 149.768C67.9979 148.808 68.6699 147.912 69.7579 147.08L79.7419 137.288C84.8619 133.384 89.0539 130.088 92.3179 127.4C95.6459 124.648 98.1099 122.216 99.7099 120.104C101.31 117.992 102.11 116.008 102.11 114.152C102.11 111.976 101.534 110.184 100.382 108.776C99.2939 107.304 97.3739 106.568 94.6219 106.568C92.7659 106.568 91.1979 106.984 89.9179 107.816C88.7019 108.584 87.7739 109.608 87.1339 110.888C86.4939 112.168 86.0459 113.48 85.7899 114.824C85.5339 115.656 85.0859 116.232 84.4459 116.552C83.8699 116.872 83.2299 117.032 82.5259 117.032H70.5259C69.9499 117.032 69.4699 116.84 69.0859 116.456C68.7019 116.072 68.5099 115.592 68.5099 115.016C68.5739 111.944 69.2139 109.064 70.4299 106.376C71.7099 103.688 73.4699 101.32 75.7099 99.272C78.0139 97.16 80.7339 95.528 83.8699 94.376C87.0699 93.224 90.6539 92.648 94.6219 92.648C100.062 92.648 104.67 93.512 108.446 95.24C112.286 96.968 115.198 99.4 117.182 102.536C119.166 105.608 120.158 109.224 120.158 113.384C120.158 116.52 119.454 119.464 118.046 122.216C116.702 124.904 114.75 127.496 112.19 129.992C109.694 132.424 106.718 134.952 103.262 137.576L94.4299 146.504H119.102C119.806 146.504 120.382 146.728 120.83 147.176C121.342 147.624 121.598 148.2 121.598 148.904V158.6C121.598 159.304 121.342 159.88 120.83 160.328C120.382 160.776 119.806 161 119.102 161H69.8539ZM134.979 161C134.275 161 133.699 160.776 133.251 160.328C132.803 159.88 132.579 159.304 132.579 158.6V96.2C132.579 95.496 132.803 94.92 133.251 94.472C133.699 94.024 134.275 93.8 134.979 93.8H159.939C166.211 93.8 171.555 94.824 175.971 96.872C180.387 98.856 183.779 101.8 186.147 105.704C188.515 109.544 189.795 114.312 189.987 120.008C190.051 122.824 190.083 125.288 190.083 127.4C190.083 129.512 190.051 131.944 189.987 134.696C189.731 140.648 188.451 145.576 186.147 149.48C183.907 153.384 180.611 156.296 176.259 158.216C171.971 160.072 166.691 161 160.419 161H134.979ZM149.763 147.176H159.939C162.691 147.176 164.963 146.76 166.755 145.928C168.611 145.032 169.987 143.656 170.883 141.8C171.843 139.944 172.355 137.512 172.419 134.504C172.547 132.648 172.611 130.984 172.611 129.512C172.675 128.04 172.675 126.568 172.611 125.096C172.611 123.624 172.547 121.992 172.419 120.2C172.291 115.848 171.139 112.68 168.963 110.696C166.851 108.648 163.683 107.624 159.459 107.624H149.763V147.176Z" fill="#7A3400"/>
</g>
<path d="M67.8539 161C67.1499 161 66.5419 160.776 66.0299 160.328C65.5819 159.88 65.3579 159.304 65.3579 158.6V151.784C65.3579 151.336 65.4859 150.664 65.7419 149.768C65.9979 148.808 66.6699 147.912 67.7579 147.08L77.7419 137.288C82.8619 133.384 87.0539 130.088 90.3179 127.4C93.6459 124.648 96.1099 122.216 97.7099 120.104C99.3099 117.992 100.11 116.008 100.11 114.152C100.11 111.976 99.5339 110.184 98.3819 108.776C97.2939 107.304 95.3739 106.568 92.6219 106.568C90.7659 106.568 89.1979 106.984 87.9179 107.816C86.7019 108.584 85.7739 109.608 85.1339 110.888C84.4939 112.168 84.0459 113.48 83.7899 114.824C83.5339 115.656 83.0859 116.232 82.4459 116.552C81.8699 116.872 81.2299 117.032 80.5259 117.032H68.5259C67.9499 117.032 67.4699 116.84 67.0859 116.456C66.7019 116.072 66.5099 115.592 66.5099 115.016C66.5739 111.944 67.2139 109.064 68.4299 106.376C69.7099 103.688 71.4699 101.32 73.7099 99.272C76.0139 97.16 78.7339 95.528 81.8699 94.376C85.0699 93.224 88.6539 92.648 92.6219 92.648C98.0619 92.648 102.67 93.512 106.446 95.24C110.286 96.968 113.198 99.4 115.182 102.536C117.166 105.608 118.158 109.224 118.158 113.384C118.158 116.52 117.454 119.464 116.046 122.216C114.702 124.904 112.75 127.496 110.19 129.992C107.694 132.424 104.718 134.952 101.262 137.576L92.4299 146.504H117.102C117.806 146.504 118.382 146.728 118.83 147.176C119.342 147.624 119.598 148.2 119.598 148.904V158.6C119.598 159.304 119.342 159.88 118.83 160.328C118.382 160.776 117.806 161 117.102 161H67.8539ZM132.979 161C132.275 161 131.699 160.776 131.251 160.328C130.803 159.88 130.579 159.304 130.579 158.6V96.2C130.579 95.496 130.803 94.92 131.251 94.472C131.699 94.024 132.275 93.8 132.979 93.8H157.939C164.211 93.8 169.555 94.824 173.971 96.872C178.387 98.856 181.779 101.8 184.147 105.704C186.515 109.544 187.795 114.312 187.987 120.008C188.051 122.824 188.083 125.288 188.083 127.4C188.083 129.512 188.051 131.944 187.987 134.696C187.731 140.648 186.451 145.576 184.147 149.48C181.907 153.384 178.611 156.296 174.259 158.216C169.971 160.072 164.691 161 158.419 161H132.979ZM147.763 147.176H157.939C160.691 147.176 162.963 146.76 164.755 145.928C166.611 145.032 167.987 143.656 168.883 141.8C169.843 139.944 170.355 137.512 170.419 134.504C170.547 132.648 170.611 130.984 170.611 129.512C170.675 128.04 170.675 126.568 170.611 125.096C170.611 123.624 170.547 121.992 170.419 120.2C170.291 115.848 169.139 112.68 166.963 110.696C164.851 108.648 161.683 107.624 157.459 107.624H147.763V147.176Z" fill="#291901"/>
<path d="M66.0299 160.328L65.6763 160.682L65.6881 160.693L65.7006 160.704L66.0299 160.328ZM65.7419 149.768L66.2227 149.905L66.225 149.897L65.7419 149.768ZM67.7579 147.08L68.0616 147.477L68.086 147.458L68.108 147.437L67.7579 147.08ZM77.7419 137.288L77.4387 136.89L77.414 136.909L77.3918 136.931L77.7419 137.288ZM90.3179 127.4L90.6357 127.786L90.6365 127.785L90.3179 127.4ZM97.7099 120.104L97.3113 119.802L97.3113 119.802L97.7099 120.104ZM98.3819 108.776L97.9798 109.073L97.9871 109.083L97.9949 109.093L98.3819 108.776ZM87.9179 107.816L88.1849 108.239L88.1904 108.235L87.9179 107.816ZM85.1339 110.888L85.5811 111.112L85.5811 111.112L85.1339 110.888ZM83.7899 114.824L84.2678 114.971L84.2759 114.945L84.281 114.918L83.7899 114.824ZM82.4459 116.552L82.2223 116.105L82.2126 116.11L82.2031 116.115L82.4459 116.552ZM67.0859 116.456L66.7323 116.81L66.7323 116.81L67.0859 116.456ZM66.5099 115.016L66.0099 115.006V115.016H66.5099ZM68.4299 106.376L67.9784 106.161L67.9743 106.17L68.4299 106.376ZM73.7099 99.272L74.0473 99.641L74.0477 99.6406L73.7099 99.272ZM81.8699 94.376L81.7005 93.9055L81.6975 93.9067L81.8699 94.376ZM106.446 95.24L106.238 95.6947L106.241 95.696L106.446 95.24ZM115.182 102.536L114.759 102.803L114.762 102.807L115.182 102.536ZM116.046 122.216L115.601 121.988L115.599 121.992L116.046 122.216ZM110.19 129.992L110.539 130.35L110.539 130.35L110.19 129.992ZM101.262 137.576L100.96 137.178L100.931 137.199L100.906 137.224L101.262 137.576ZM92.4299 146.504L92.0744 146.152L91.2319 147.004H92.4299V146.504ZM118.83 147.176L118.476 147.53L118.488 147.541L118.501 147.552L118.83 147.176ZM118.83 160.328L118.501 159.952L118.488 159.963L118.476 159.974L118.83 160.328ZM67.8539 160.5C67.2664 160.5 66.7766 160.317 66.3591 159.952L65.7006 160.704C66.3072 161.235 67.0334 161.5 67.8539 161.5V160.5ZM66.3834 159.974C66.04 159.631 65.8579 159.188 65.8579 158.6H64.8579C64.8579 159.42 65.1237 160.129 65.6763 160.682L66.3834 159.974ZM65.8579 158.6V151.784H64.8579V158.6H65.8579ZM65.8579 151.784C65.8579 151.41 65.9687 150.794 66.2226 149.905L65.2611 149.631C65.003 150.534 64.8579 151.262 64.8579 151.784H65.8579ZM66.225 149.897C66.4435 149.078 67.0287 148.267 68.0616 147.477L67.4541 146.683C66.3111 147.557 65.5523 148.538 65.2588 149.639L66.225 149.897ZM68.108 147.437L78.092 137.645L77.3918 136.931L67.4078 146.723L68.108 147.437ZM78.045 137.686C83.1677 133.78 87.3651 130.479 90.6357 127.786L90 127.014C86.7426 129.697 82.556 132.988 77.4387 136.89L78.045 137.686ZM90.6365 127.785C93.9782 125.022 96.4752 122.562 98.1084 120.406L97.3113 119.802C95.7446 121.87 93.3136 124.274 89.9992 127.015L90.6365 127.785ZM98.1084 120.406C99.747 118.243 100.61 116.155 100.61 114.152H99.6099C99.6099 115.861 98.8728 117.741 97.3113 119.802L98.1084 120.406ZM100.61 114.152C100.61 111.884 100.008 109.973 98.7689 108.459L97.9949 109.093C99.0602 110.395 99.6099 112.068 99.6099 114.152H100.61ZM98.784 108.479C97.5614 106.825 95.4496 106.068 92.6219 106.068V107.068C95.2982 107.068 97.0264 107.783 97.9798 109.073L98.784 108.479ZM92.6219 106.068C90.6902 106.068 89.0225 106.502 87.6454 107.397L88.1904 108.235C89.3733 107.466 90.8416 107.068 92.6219 107.068V106.068ZM87.6509 107.393C86.3582 108.21 85.3677 109.302 84.6867 110.664L85.5811 111.112C86.1801 109.914 87.0456 108.958 88.1849 108.239L87.6509 107.393ZM84.6867 110.664C84.027 111.984 83.5637 113.339 83.2987 114.73L84.281 114.918C84.5281 113.621 84.9607 112.352 85.5811 111.112L84.6867 110.664ZM83.312 114.677C83.0868 115.409 82.7143 115.859 82.2223 116.105L82.6695 116.999C83.4575 116.605 83.9809 115.903 84.2678 114.971L83.312 114.677ZM82.2031 116.115C81.7064 116.391 81.1509 116.532 80.5259 116.532V117.532C81.3088 117.532 82.0333 117.353 82.6887 116.989L82.2031 116.115ZM80.5259 116.532H68.5259V117.532H80.5259V116.532ZM68.5259 116.532C68.0736 116.532 67.7235 116.387 67.4394 116.102L66.7323 116.81C67.2162 117.293 67.8262 117.532 68.5259 117.532V116.532ZM67.4394 116.102C67.1553 115.818 67.0099 115.468 67.0099 115.016H66.0099C66.0099 115.716 66.2484 116.326 66.7323 116.81L67.4394 116.102ZM67.0098 115.026C67.0724 112.019 67.6984 109.206 68.8854 106.582L67.9743 106.17C66.7293 108.922 66.0753 111.869 66.01 115.006L67.0098 115.026ZM68.8813 106.591C70.133 103.962 71.8539 101.646 74.0473 99.641L73.3725 98.903C71.0858 100.994 69.2867 103.414 67.9784 106.161L68.8813 106.591ZM74.0477 99.6406C76.3004 97.5756 78.9632 95.9764 82.0423 94.8453L81.6975 93.9067C78.5045 95.0796 75.7273 96.7444 73.372 98.9034L74.0477 99.6406ZM82.0392 94.8464C85.1767 93.717 88.7022 93.148 92.6219 93.148V92.148C88.6056 92.148 84.9631 92.731 81.7005 93.9056L82.0392 94.8464ZM92.6219 93.148C98.0114 93.148 102.544 94.0043 106.238 95.6946L106.654 94.7853C102.796 93.0197 98.1124 92.148 92.6219 92.148V93.148ZM106.241 95.696C110.004 97.3893 112.835 99.7609 114.759 102.803L115.604 102.269C113.561 99.039 110.568 96.5467 106.651 94.784L106.241 95.696ZM114.762 102.807C116.687 105.788 117.658 109.307 117.658 113.384H118.658C118.658 109.141 117.645 105.428 115.602 102.265L114.762 102.807ZM117.658 113.384C117.658 116.442 116.972 119.308 115.601 121.988L116.491 122.444C117.936 119.62 118.658 116.598 118.658 113.384H117.658ZM115.599 121.992C114.284 124.622 112.368 127.17 109.841 129.634L110.539 130.35C113.132 127.822 115.12 125.186 116.493 122.44L115.599 121.992ZM109.841 129.634C107.363 132.049 104.403 134.563 100.96 137.178L101.564 137.974C105.033 135.341 108.025 132.799 110.539 130.35L109.841 129.634ZM100.906 137.224L92.0744 146.152L92.7853 146.856L101.617 137.928L100.906 137.224ZM92.4299 147.004H117.102V146.004H92.4299V147.004ZM117.102 147.004C117.689 147.004 118.133 147.186 118.476 147.53L119.183 146.822C118.631 146.27 117.922 146.004 117.102 146.004V147.004ZM118.501 147.552C118.9 147.902 119.098 148.338 119.098 148.904H120.098C120.098 148.062 119.784 147.346 119.159 146.8L118.501 147.552ZM119.098 148.904V158.6H120.098V148.904H119.098ZM119.098 158.6C119.098 159.166 118.9 159.602 118.501 159.952L119.159 160.704C119.784 160.158 120.098 159.442 120.098 158.6H119.098ZM118.476 159.974C118.133 160.318 117.689 160.5 117.102 160.5V161.5C117.922 161.5 118.631 161.234 119.183 160.682L118.476 159.974ZM117.102 160.5H67.8539V161.5H117.102V160.5ZM131.251 160.328L131.605 159.974L131.605 159.974L131.251 160.328ZM131.251 94.472L131.605 94.8256L131.605 94.8256L131.251 94.472ZM173.971 96.872L173.761 97.3256L173.766 97.3281L173.971 96.872ZM184.147 105.704L183.72 105.963L183.722 105.966L184.147 105.704ZM187.987 120.008L188.487 119.997L188.487 119.991L187.987 120.008ZM187.987 134.696L188.487 134.717L188.487 134.708L187.987 134.696ZM184.147 149.48L183.717 149.226L183.714 149.231L184.147 149.48ZM174.259 158.216L174.458 158.675L174.461 158.673L174.259 158.216ZM147.763 147.176H147.263V147.676H147.763V147.176ZM164.755 145.928L164.966 146.382L164.973 146.378L164.755 145.928ZM168.883 141.8L168.439 141.57L168.433 141.583L168.883 141.8ZM170.419 134.504L169.921 134.47L169.92 134.481L169.919 134.493L170.419 134.504ZM170.611 129.512L170.112 129.49L170.111 129.501V129.512H170.611ZM170.611 125.096H170.111V125.107L170.112 125.118L170.611 125.096ZM170.419 120.2L169.92 120.215L169.92 120.225L169.921 120.236L170.419 120.2ZM166.963 110.696L166.615 111.055L166.621 111.06L166.627 111.065L166.963 110.696ZM147.763 107.624V107.124H147.263V107.624H147.763ZM132.979 160.5C132.392 160.5 131.948 160.318 131.605 159.974L130.898 160.682C131.45 161.234 132.159 161.5 132.979 161.5V160.5ZM131.605 159.974C131.262 159.631 131.079 159.188 131.079 158.6H130.079C130.079 159.42 130.345 160.129 130.898 160.682L131.605 159.974ZM131.079 158.6V96.2H130.079V158.6H131.079ZM131.079 96.2C131.079 95.6125 131.262 95.1689 131.605 94.8256L130.898 94.1184C130.345 94.671 130.079 95.3795 130.079 96.2H131.079ZM131.605 94.8256C131.948 94.4822 132.392 94.3 132.979 94.3V93.3C132.159 93.3 131.45 93.5658 130.898 94.1184L131.605 94.8256ZM132.979 94.3H157.939V93.3H132.979V94.3ZM157.939 94.3C164.159 94.3 169.427 95.3156 173.761 97.3256L174.182 96.4184C169.684 94.3324 164.264 93.3 157.939 93.3V94.3ZM173.766 97.3281C178.096 99.2732 181.408 102.151 183.72 105.963L184.575 105.445C182.151 101.449 178.679 98.4388 174.176 96.4159L173.766 97.3281ZM183.722 105.966C186.034 109.715 187.298 114.393 187.488 120.025L188.487 119.991C188.293 114.231 186.997 109.373 184.573 105.442L183.722 105.966ZM187.488 120.019C187.551 122.833 187.583 125.293 187.583 127.4H188.583C188.583 125.283 188.551 122.815 188.487 119.997L187.488 120.019ZM187.583 127.4C187.583 129.507 187.551 131.935 187.488 134.684L188.487 134.708C188.551 131.953 188.583 129.517 188.583 127.4H187.583ZM187.488 134.675C187.234 140.569 185.968 145.411 183.717 149.226L184.578 149.734C186.935 145.741 188.228 140.727 188.487 134.717L187.488 134.675ZM183.714 149.231C181.53 153.037 178.318 155.879 174.058 157.759L174.461 158.673C178.905 156.713 182.285 153.731 184.581 149.729L183.714 149.231ZM174.061 157.757C169.853 159.578 164.645 160.5 158.419 160.5V161.5C164.738 161.5 170.09 160.566 174.458 158.675L174.061 157.757ZM158.419 160.5H132.979V161.5H158.419V160.5ZM147.763 147.676H157.939V146.676H147.763V147.676ZM157.939 147.676C160.737 147.676 163.087 147.254 164.966 146.382L164.545 145.474C162.839 146.266 160.645 146.676 157.939 146.676V147.676ZM164.973 146.378C166.93 145.433 168.389 143.975 169.334 142.017L168.433 141.583C167.586 143.337 166.292 144.631 164.538 145.478L164.973 146.378ZM169.327 142.03C170.335 140.083 170.854 137.568 170.919 134.515L169.919 134.493C169.856 137.456 169.352 139.805 168.439 141.57L169.327 142.03ZM170.918 134.538C171.047 132.674 171.111 130.998 171.111 129.512H170.111C170.111 130.97 170.048 132.622 169.921 134.47L170.918 134.538ZM171.111 129.534C171.176 128.047 171.176 126.561 171.111 125.074L170.112 125.118C170.175 126.575 170.175 128.033 170.112 129.49L171.111 129.534ZM171.111 125.096C171.111 123.61 171.047 121.966 170.918 120.164L169.921 120.236C170.048 122.018 170.111 123.638 170.111 125.096H171.111ZM170.919 120.185C170.789 115.763 169.616 112.438 167.3 110.327L166.627 111.065C168.663 112.922 169.794 115.933 169.92 120.215L170.919 120.185ZM167.311 110.337C165.072 108.166 161.757 107.124 157.459 107.124V108.124C161.61 108.124 164.631 109.13 166.615 111.055L167.311 110.337ZM157.459 107.124H147.763V108.124H157.459V107.124ZM147.263 107.624V147.176H148.263V107.624H147.263Z" fill="#FFFF7D"/>
<defs>
<filter id="filter0_b_652_7199" x="65.3579" y="90.648" width="126.725" height="72.352" filterUnits="userSpaceOnUse" color-interpolation-filters="sRGB">
<feFlood flood-opacity="0" result="BackgroundImageFix"/>
<feGaussianBlur in="BackgroundImageFix" stdDeviation="1"/>
<feComposite in2="SourceAlpha" operator="in" result="effect1_backgroundBlur_652_7199"/>
<feBlend mode="normal" in="SourceGraphic" in2="effect1_backgroundBlur_652_7199" result="shape"/>
</filter>
</defs>
</svg>
