<svg width="256" height="256" viewBox="0 0 256 256" fill="none" xmlns="http://www.w3.org/2000/svg">
<path d="M14.0515 69.7C13.8515 68.2 14.2515 66.8 14.9515 65.5C15.6515 64.2 16.8515 63.2 18.1515 62.6L73.5515 39C73.9515 38.8 74.3515 38.6 74.7515 38.3L124.151 4.2C125.251 3.4 126.651 3 128.051 3C129.451 3 130.851 3.4 131.951 4.2L181.351 38.3C181.751 38.6 182.151 38.8 182.551 39L238.051 62.7C239.451 63.3 240.551 64.3 241.251 65.6C241.951 66.9 242.351 68.4 242.151 69.8L235.951 127C235.851 127.5 235.851 128 235.951 128.5L242.151 185.7C242.351 187.2 241.951 188.6 241.251 189.9C240.551 191.2 239.351 192.2 238.051 192.8L182.651 216.4C182.251 216.6 181.851 216.8 181.451 217.1L132.051 251.2C130.951 252 129.551 252.4 128.151 252.4C126.751 252.4 125.351 252 124.251 251.2L74.8515 217.1C74.4515 216.8 74.0515 216.6 73.6515 216.4L18.2515 192.7C16.8515 192.1 15.7515 191.1 15.0515 189.8C14.3515 188.5 13.9515 187 14.1515 185.6L20.3515 128.4C20.4515 127.9 20.4515 127.4 20.3515 126.9L14.0515 69.7Z" fill="#DEBA44"/>
<path d="M132.151 4.39999L136.151 133.5L232.651 60.9L181.551 38.3L132.151 4.39999Z" fill="#D1A42D"/>
<path d="M232.351 195.3L135.951 130.2L136.251 248.2L181.251 217.4L232.351 195.3Z" fill="#D1A42D"/>
<path d="M14.8515 71.1L138.252 130.9L14.8515 181.3L20.2515 128.2L14.8515 71.1Z" fill="#D1A42D"/>
<g filter="url(#filter0_b_654_7335)">
<path d="M94.2 161.96C89.208 161.96 84.952 161.384 81.432 160.232C77.912 159.016 75.032 157.48 72.792 155.624C70.552 153.704 68.888 151.688 67.8 149.576C66.712 147.4 66.136 145.32 66.072 143.336C66.072 142.76 66.264 142.28 66.648 141.896C67.096 141.512 67.608 141.32 68.184 141.32H80.664C81.432 141.32 82.04 141.48 82.488 141.8C82.936 142.056 83.352 142.504 83.736 143.144C84.248 144.36 84.984 145.352 85.944 146.12C86.968 146.888 88.184 147.432 89.592 147.752C91 148.008 92.536 148.136 94.2 148.136C97.464 148.136 99.992 147.4 101.784 145.928C103.64 144.392 104.568 142.312 104.568 139.688C104.568 136.936 103.704 134.984 101.976 133.832C100.248 132.616 97.784 132.008 94.584 132.008H83.928C83.224 132.008 82.648 131.784 82.2 131.336C81.752 130.888 81.528 130.312 81.528 129.608V124.232C81.528 123.464 81.688 122.792 82.008 122.216C82.328 121.64 82.68 121.224 83.064 120.968L98.808 107.624H72.12C71.48 107.624 70.904 107.4 70.392 106.952C69.944 106.504 69.72 105.928 69.72 105.224V96.2C69.72 95.496 69.944 94.92 70.392 94.472C70.904 94.024 71.48 93.8 72.12 93.8H116.28C116.984 93.8 117.56 94.024 118.008 94.472C118.52 94.92 118.776 95.496 118.776 96.2V104.36C118.776 105.064 118.616 105.704 118.296 106.28C117.976 106.792 117.624 107.208 117.24 107.528L102.648 121.064L103.32 121.256C106.968 121.704 110.232 122.696 113.112 124.232C115.992 125.704 118.264 127.784 119.928 130.472C121.592 133.16 122.424 136.584 122.424 140.744C122.424 145.096 121.176 148.872 118.68 152.072C116.248 155.208 112.92 157.64 108.696 159.368C104.472 161.096 99.64 161.96 94.2 161.96ZM135.401 161C134.697 161 134.121 160.776 133.673 160.328C133.225 159.88 133.001 159.304 133.001 158.6V96.2C133.001 95.496 133.225 94.92 133.673 94.472C134.121 94.024 134.697 93.8 135.401 93.8H160.361C166.633 93.8 171.977 94.824 176.393 96.872C180.809 98.856 184.201 101.8 186.569 105.704C188.937 109.544 190.217 114.312 190.409 120.008C190.473 122.824 190.505 125.288 190.505 127.4C190.505 129.512 190.473 131.944 190.409 134.696C190.153 140.648 188.873 145.576 186.569 149.48C184.329 153.384 181.033 156.296 176.681 158.216C172.393 160.072 167.113 161 160.841 161H135.401ZM150.185 147.176H160.361C163.113 147.176 165.385 146.76 167.177 145.928C169.033 145.032 170.409 143.656 171.305 141.8C172.265 139.944 172.777 137.512 172.841 134.504C172.969 132.648 173.033 130.984 173.033 129.512C173.097 128.04 173.097 126.568 173.033 125.096C173.033 123.624 172.969 121.992 172.841 120.2C172.713 115.848 171.561 112.68 169.385 110.696C167.273 108.648 164.105 107.624 159.881 107.624H150.185V147.176Z" fill="#7A3400"/>
</g>
<path d="M92.2 161.96C87.208 161.96 82.952 161.384 79.432 160.232C75.912 159.016 73.032 157.48 70.792 155.624C68.552 153.704 66.888 151.688 65.8 149.576C64.712 147.4 64.136 145.32 64.072 143.336C64.072 142.76 64.264 142.28 64.648 141.896C65.096 141.512 65.608 141.32 66.184 141.32H78.664C79.432 141.32 80.04 141.48 80.488 141.8C80.936 142.056 81.352 142.504 81.736 143.144C82.248 144.36 82.984 145.352 83.944 146.12C84.968 146.888 86.184 147.432 87.592 147.752C89 148.008 90.536 148.136 92.2 148.136C95.464 148.136 97.992 147.4 99.784 145.928C101.64 144.392 102.568 142.312 102.568 139.688C102.568 136.936 101.704 134.984 99.976 133.832C98.248 132.616 95.784 132.008 92.584 132.008H81.928C81.224 132.008 80.648 131.784 80.2 131.336C79.752 130.888 79.528 130.312 79.528 129.608V124.232C79.528 123.464 79.688 122.792 80.008 122.216C80.328 121.64 80.68 121.224 81.064 120.968L96.808 107.624H70.12C69.48 107.624 68.904 107.4 68.392 106.952C67.944 106.504 67.72 105.928 67.72 105.224V96.2C67.72 95.496 67.944 94.92 68.392 94.472C68.904 94.024 69.48 93.8 70.12 93.8H114.28C114.984 93.8 115.56 94.024 116.008 94.472C116.52 94.92 116.776 95.496 116.776 96.2V104.36C116.776 105.064 116.616 105.704 116.296 106.28C115.976 106.792 115.624 107.208 115.24 107.528L100.648 121.064L101.32 121.256C104.968 121.704 108.232 122.696 111.112 124.232C113.992 125.704 116.264 127.784 117.928 130.472C119.592 133.16 120.424 136.584 120.424 140.744C120.424 145.096 119.176 148.872 116.68 152.072C114.248 155.208 110.92 157.64 106.696 159.368C102.472 161.096 97.64 161.96 92.2 161.96ZM133.401 161C132.697 161 132.121 160.776 131.673 160.328C131.225 159.88 131.001 159.304 131.001 158.6V96.2C131.001 95.496 131.225 94.92 131.673 94.472C132.121 94.024 132.697 93.8 133.401 93.8H158.361C164.633 93.8 169.977 94.824 174.393 96.872C178.809 98.856 182.201 101.8 184.569 105.704C186.937 109.544 188.217 114.312 188.409 120.008C188.473 122.824 188.505 125.288 188.505 127.4C188.505 129.512 188.473 131.944 188.409 134.696C188.153 140.648 186.873 145.576 184.569 149.48C182.329 153.384 179.033 156.296 174.681 158.216C170.393 160.072 165.113 161 158.841 161H133.401ZM148.185 147.176H158.361C161.113 147.176 163.385 146.76 165.177 145.928C167.033 145.032 168.409 143.656 169.305 141.8C170.265 139.944 170.777 137.512 170.841 134.504C170.969 132.648 171.033 130.984 171.033 129.512C171.097 128.04 171.097 126.568 171.033 125.096C171.033 123.624 170.969 121.992 170.841 120.2C170.713 115.848 169.561 112.68 167.385 110.696C165.273 108.648 162.105 107.624 157.881 107.624H148.185V147.176Z" fill="#291901"/>
<path d="M79.432 160.232L79.2687 160.705L79.2765 160.707L79.432 160.232ZM70.792 155.624L70.4666 156.004L70.473 156.009L70.792 155.624ZM65.8 149.576L65.3528 149.8L65.3555 149.805L65.8 149.576ZM64.072 143.336H63.572V143.344L63.5723 143.352L64.072 143.336ZM64.648 141.896L64.3226 141.516L64.308 141.529L64.2944 141.542L64.648 141.896ZM80.488 141.8L80.1974 142.207L80.218 142.222L80.2399 142.234L80.488 141.8ZM81.736 143.144L82.1968 142.95L82.183 142.917L82.1647 142.887L81.736 143.144ZM83.944 146.12L83.6317 146.51L83.6378 146.515L83.644 146.52L83.944 146.12ZM87.592 147.752L87.4812 148.24L87.4918 148.242L87.5026 148.244L87.592 147.752ZM99.784 145.928L100.101 146.314L100.103 146.313L99.784 145.928ZM99.976 133.832L99.6882 134.241L99.6987 134.248L99.976 133.832ZM80.2 131.336L79.8464 131.69L79.8464 131.69L80.2 131.336ZM80.008 122.216L80.4451 122.459L80.4451 122.459L80.008 122.216ZM81.064 120.968L81.3414 121.384L81.3653 121.368L81.3873 121.349L81.064 120.968ZM96.808 107.624L97.1313 108.005L98.1712 107.124H96.808V107.624ZM68.392 106.952L68.0384 107.306L68.0502 107.317L68.0627 107.328L68.392 106.952ZM68.392 94.472L68.0627 94.0957L68.0502 94.1067L68.0384 94.1184L68.392 94.472ZM116.008 94.472L115.654 94.8256L115.666 94.8373L115.679 94.8483L116.008 94.472ZM116.296 106.28L116.72 106.545L116.727 106.534L116.733 106.523L116.296 106.28ZM115.24 107.528L114.92 107.144L114.91 107.152L114.9 107.161L115.24 107.528ZM100.648 121.064L100.308 120.697L99.6573 121.301L100.511 121.545L100.648 121.064ZM101.32 121.256L101.183 121.737L101.22 121.748L101.259 121.752L101.32 121.256ZM111.112 124.232L110.877 124.673L110.884 124.677L111.112 124.232ZM117.928 130.472L118.353 130.209L118.353 130.209L117.928 130.472ZM116.68 152.072L116.286 151.764L116.285 151.766L116.68 152.072ZM106.696 159.368L106.507 158.905L106.507 158.905L106.696 159.368ZM92.2 161.46C87.2437 161.46 83.0433 160.888 79.5875 159.757L79.2765 160.707C82.8607 161.88 87.1723 162.46 92.2 162.46V161.46ZM79.5953 159.759C76.1168 158.558 73.2938 157.048 71.111 155.239L70.473 156.009C72.7702 157.912 75.7072 159.474 79.2687 160.705L79.5953 159.759ZM71.1174 155.244C68.915 153.357 67.2967 151.39 66.2445 149.347L65.3555 149.805C66.4793 151.986 68.189 154.051 70.4666 156.004L71.1174 155.244ZM66.2472 149.352C65.1844 147.227 64.6329 145.217 64.5717 143.32L63.5723 143.352C63.6391 145.423 64.2396 147.573 65.3528 149.8L66.2472 149.352ZM64.572 143.336C64.572 142.884 64.7175 142.534 65.0016 142.25L64.2944 141.542C63.8105 142.026 63.572 142.636 63.572 143.336H64.572ZM64.9734 142.276C65.3332 141.967 65.7305 141.82 66.184 141.82V140.82C65.4855 140.82 64.8588 141.057 64.3226 141.516L64.9734 142.276ZM66.184 141.82H78.664V140.82H66.184V141.82ZM78.664 141.82C79.3678 141.82 79.8618 141.967 80.1974 142.207L80.7786 141.393C80.2182 140.993 79.4962 140.82 78.664 140.82V141.82ZM80.2399 142.234C80.5876 142.433 80.9489 142.804 81.3073 143.401L82.1647 142.887C81.7551 142.204 81.2844 141.679 80.7361 141.366L80.2399 142.234ZM81.2752 143.338C81.8171 144.625 82.6018 145.687 83.6317 146.51L84.2563 145.73C83.3662 145.017 82.6789 144.095 82.1968 142.95L81.2752 143.338ZM83.644 146.52C84.731 147.335 86.0135 147.906 87.4812 148.24L87.7028 147.264C86.3545 146.958 85.205 146.441 84.244 145.72L83.644 146.52ZM87.5026 148.244C88.9444 148.506 90.5107 148.636 92.2 148.636V147.636C90.5613 147.636 89.0556 147.51 87.6814 147.26L87.5026 148.244ZM92.2 148.636C95.5333 148.636 98.1896 147.885 100.101 146.314L99.4666 145.542C97.7944 146.915 95.3947 147.636 92.2 147.636V148.636ZM100.103 146.313C102.085 144.673 103.068 142.446 103.068 139.688H102.068C102.068 142.178 101.195 144.111 99.4652 145.543L100.103 146.313ZM103.068 139.688C103.068 136.829 102.164 134.69 100.253 133.416L99.6987 134.248C101.244 135.278 102.068 137.043 102.068 139.688H103.068ZM100.264 133.423C98.4183 132.124 95.8372 131.508 92.584 131.508V132.508C95.7308 132.508 98.0777 133.108 99.6883 134.241L100.264 133.423ZM92.584 131.508H81.928V132.508H92.584V131.508ZM81.928 131.508C81.3405 131.508 80.897 131.326 80.5536 130.982L79.8464 131.69C80.399 132.242 81.1075 132.508 81.928 132.508V131.508ZM80.5536 130.982C80.2102 130.639 80.028 130.196 80.028 129.608H79.028C79.028 130.428 79.2938 131.137 79.8464 131.69L80.5536 130.982ZM80.028 129.608V124.232H79.028V129.608H80.028ZM80.028 124.232C80.028 123.535 80.1727 122.949 80.4451 122.459L79.5709 121.973C79.2033 122.635 79.028 123.393 79.028 124.232H80.028ZM80.4451 122.459C80.7419 121.925 81.0458 121.581 81.3414 121.384L80.7867 120.552C80.3142 120.867 79.9141 121.355 79.5709 121.973L80.4451 122.459ZM81.3873 121.349L97.1313 108.005L96.4847 107.243L80.7407 120.587L81.3873 121.349ZM96.808 107.124H70.12V108.124H96.808V107.124ZM70.12 107.124C69.6092 107.124 69.1484 106.949 68.7213 106.576L68.0627 107.328C68.6596 107.851 69.3508 108.124 70.12 108.124V107.124ZM68.7456 106.598C68.4022 106.255 68.22 105.812 68.22 105.224H67.22C67.22 106.044 67.4858 106.753 68.0384 107.306L68.7456 106.598ZM68.22 105.224V96.2H67.22V105.224H68.22ZM68.22 96.2C68.22 95.6125 68.4022 95.1689 68.7456 94.8256L68.0384 94.1184C67.4858 94.671 67.22 95.3795 67.22 96.2H68.22ZM68.7213 94.8483C69.1484 94.4746 69.6092 94.3 70.12 94.3V93.3C69.3508 93.3 68.6596 93.5734 68.0627 94.0957L68.7213 94.8483ZM70.12 94.3H114.28V93.3H70.12V94.3ZM114.28 94.3C114.868 94.3 115.311 94.4822 115.654 94.8256L116.362 94.1184C115.809 93.5658 115.1 93.3 114.28 93.3V94.3ZM115.679 94.8483C116.078 95.1976 116.276 95.6344 116.276 96.2H117.276C117.276 95.3575 116.962 94.6424 116.337 94.0957L115.679 94.8483ZM116.276 96.2V104.36H117.276V96.2H116.276ZM116.276 104.36C116.276 104.985 116.135 105.541 115.859 106.037L116.733 106.523C117.097 105.867 117.276 105.143 117.276 104.36H116.276ZM115.872 106.015C115.574 106.491 115.256 106.864 114.92 107.144L115.56 107.912C115.992 107.552 116.378 107.093 116.72 106.545L115.872 106.015ZM114.9 107.161L100.308 120.697L100.988 121.431L115.58 107.895L114.9 107.161ZM100.511 121.545L101.183 121.737L101.457 120.775L100.785 120.583L100.511 121.545ZM101.259 121.752C104.854 122.194 108.057 123.17 110.877 124.673L111.347 123.791C108.407 122.222 105.082 121.214 101.381 120.76L101.259 121.752ZM110.884 124.677C113.685 126.109 115.888 128.127 117.503 130.735L118.353 130.209C116.64 127.441 114.299 125.299 111.34 123.787L110.884 124.677ZM117.503 130.735C119.105 133.323 119.924 136.648 119.924 140.744H120.924C120.924 136.52 120.079 132.997 118.353 130.209L117.503 130.735ZM119.924 140.744C119.924 144.993 118.708 148.659 116.286 151.764L117.074 152.38C119.644 149.085 120.924 145.199 120.924 140.744H119.924ZM116.285 151.766C113.914 154.823 110.662 157.205 106.507 158.905L106.885 159.831C111.178 158.075 114.582 155.593 117.075 152.378L116.285 151.766ZM106.507 158.905C102.353 160.604 97.5873 161.46 92.2 161.46V162.46C97.6927 162.46 102.591 161.588 106.885 159.831L106.507 158.905ZM131.673 160.328L132.027 159.974L132.027 159.974L131.673 160.328ZM131.673 94.472L132.027 94.8256L132.027 94.8256L131.673 94.472ZM174.393 96.872L174.183 97.3256L174.188 97.3281L174.393 96.872ZM184.569 105.704L184.142 105.963L184.144 105.966L184.569 105.704ZM188.409 120.008L188.909 119.997L188.909 119.991L188.409 120.008ZM188.409 134.696L188.909 134.717L188.909 134.708L188.409 134.696ZM184.569 149.48L184.139 149.226L184.136 149.231L184.569 149.48ZM174.681 158.216L174.88 158.675L174.883 158.673L174.681 158.216ZM148.185 147.176H147.685V147.676H148.185V147.176ZM165.177 145.928L165.388 146.382L165.395 146.378L165.177 145.928ZM169.305 141.8L168.861 141.57L168.855 141.583L169.305 141.8ZM170.841 134.504L170.342 134.47L170.342 134.481L170.341 134.493L170.841 134.504ZM171.033 129.512L170.534 129.49L170.533 129.501V129.512H171.033ZM171.033 125.096H170.533V125.107L170.534 125.118L171.033 125.096ZM170.841 120.2L170.341 120.215L170.342 120.225L170.343 120.236L170.841 120.2ZM167.385 110.696L167.037 111.055L167.043 111.06L167.048 111.065L167.385 110.696ZM148.185 107.624V107.124H147.685V107.624H148.185ZM133.401 160.5C132.814 160.5 132.37 160.318 132.027 159.974L131.32 160.682C131.872 161.234 132.581 161.5 133.401 161.5V160.5ZM132.027 159.974C131.683 159.631 131.501 159.188 131.501 158.6H130.501C130.501 159.42 130.767 160.129 131.32 160.682L132.027 159.974ZM131.501 158.6V96.2H130.501V158.6H131.501ZM131.501 96.2C131.501 95.6125 131.683 95.1689 132.027 94.8256L131.32 94.1184C130.767 94.671 130.501 95.3795 130.501 96.2H131.501ZM132.027 94.8256C132.37 94.4822 132.814 94.3 133.401 94.3V93.3C132.581 93.3 131.872 93.5658 131.32 94.1184L132.027 94.8256ZM133.401 94.3H158.361V93.3H133.401V94.3ZM158.361 94.3C164.581 94.3 169.849 95.3156 174.183 97.3256L174.604 96.4184C170.106 94.3324 164.686 93.3 158.361 93.3V94.3ZM174.188 97.3281C178.518 99.2732 181.83 102.151 184.142 105.963L184.997 105.445C182.573 101.449 179.101 98.4388 174.598 96.4159L174.188 97.3281ZM184.144 105.966C186.455 109.715 187.72 114.393 187.91 120.025L188.909 119.991C188.715 114.231 187.419 109.373 184.995 105.442L184.144 105.966ZM187.909 120.019C187.973 122.833 188.005 125.293 188.005 127.4H189.005C189.005 125.283 188.973 122.815 188.909 119.997L187.909 120.019ZM188.005 127.4C188.005 129.507 187.973 131.935 187.909 134.684L188.909 134.708C188.973 131.953 189.005 129.517 189.005 127.4H188.005ZM187.91 134.675C187.656 140.569 186.39 145.411 184.139 149.226L185 149.734C187.357 145.741 188.65 140.727 188.909 134.717L187.91 134.675ZM184.136 149.231C181.952 153.037 178.74 155.879 174.479 157.759L174.883 158.673C179.327 156.713 182.707 153.731 185.003 149.729L184.136 149.231ZM174.483 157.757C170.275 159.578 165.067 160.5 158.841 160.5V161.5C165.159 161.5 170.512 160.566 174.88 158.675L174.483 157.757ZM158.841 160.5H133.401V161.5H158.841V160.5ZM148.185 147.676H158.361V146.676H148.185V147.676ZM158.361 147.676C161.159 147.676 163.509 147.254 165.388 146.382L164.967 145.474C163.261 146.266 161.067 146.676 158.361 146.676V147.676ZM165.395 146.378C167.352 145.433 168.81 143.975 169.756 142.017L168.855 141.583C168.008 143.337 166.714 144.631 164.96 145.478L165.395 146.378ZM169.749 142.03C170.756 140.083 171.276 137.568 171.341 134.515L170.341 134.493C170.278 137.456 169.774 139.805 168.861 141.57L169.749 142.03ZM171.34 134.538C171.469 132.674 171.533 130.998 171.533 129.512H170.533C170.533 130.97 170.47 132.622 170.342 134.47L171.34 134.538ZM171.533 129.534C171.597 128.047 171.597 126.561 171.533 125.074L170.534 125.118C170.597 126.575 170.597 128.033 170.534 129.49L171.533 129.534ZM171.533 125.096C171.533 123.61 171.469 121.966 171.34 120.164L170.343 120.236C170.47 122.018 170.533 123.638 170.533 125.096H171.533ZM171.341 120.185C171.211 115.763 170.038 112.438 167.722 110.327L167.048 111.065C169.085 112.922 170.216 115.933 170.341 120.215L171.341 120.185ZM167.733 110.337C165.494 108.166 162.179 107.124 157.881 107.124V108.124C162.032 108.124 165.052 109.13 167.037 111.055L167.733 110.337ZM157.881 107.124H148.185V108.124H157.881V107.124ZM147.685 107.624V147.176H148.685V107.624H147.685Z" fill="#FFFF7D"/>
<defs>
<filter id="filter0_b_654_7335" x="64.072" y="91.8" width="128.433" height="72.16" filterUnits="userSpaceOnUse" color-interpolation-filters="sRGB">
<feFlood flood-opacity="0" result="BackgroundImageFix"/>
<feGaussianBlur in="BackgroundImageFix" stdDeviation="1"/>
<feComposite in2="SourceAlpha" operator="in" result="effect1_backgroundBlur_654_7335"/>
<feBlend mode="normal" in="SourceGraphic" in2="effect1_backgroundBlur_654_7335" result="shape"/>
</filter>
</defs>
</svg>
